# xmcd
#
# Track frame offsets:
#   150
#   14096
#   28466
#   42607
#   59285
#   78748
#   96957
#   112473
#   125311
#   139895
#   154398
#   168344
#   179653
#   198684
#   217470
#   233961
#   247782
#   262110
#   277611
#   290445
#   305921
#
# Disc length: 4293 seconds
#
# Revision: 0
# Processed by: cddbd v1.5.1PL2 Copyright (c) Steve Scherf et al.
# Submitted via: uFREEDB ActiveX Control 1.5
#
DISCID=5a10c315
DTITLE=Rio Negro and Solimões - Grandes Sucessos
DYEAR=1900
DGENRE=Country
TTITLE0=Peão Apaixonado
TTITLE1=De São Paulo a Belém
TTITLE2=Uma Noite no Forró
TTITLE3=Antes de Sair
TTITLE4=Frio da Madrugada
TTITLE5=Boiadeiro e Violeiro
TTITLE6=Saudade é Quem Manda
TTITLE7=Tô Doidão
TTITLE8=Chora, Viola
TTITLE9=Como Esquecer um Amor
TTITLE10=Deixa a Poeira Subir
TTITLE11=Rei da Festa
TTITLE12=Agente se Entrega
TTITLE13=É por Você
TTITLE14=Agente se Entrega
TTITLE15=Eu Quero Fazer Amor
TTITLE16=No Pique do Rodeio
TTITLE17=Quero sua Volta
TTITLE18=Chove
TTITLE19=De Cara Cheia
TTITLE20=Preciso te Ter
EXTD=
EXTT0=
EXTT1=
EXTT2=
EXTT3=
EXTT4=
EXTT5=
EXTT6=
EXTT7=
EXTT8=
EXTT9=
EXTT10=
EXTT11=
EXTT12=
EXTT13=
EXTT14=
EXTT15=
EXTT16=
EXTT17=
EXTT18=
EXTT19=
EXTT20=
PLAYORDER=
